<?xml version="1.0" standalone="no"?>
<!DOCTYPE svg PUBLIC "-//W3C//DTD SVG 20010904//EN"
 "http://www.w3.org/TR/2001/REC-SVG-20010904/DTD/svg10.dtd">
<svg version="1.0" xmlns="http://www.w3.org/2000/svg"
 width="1185.000000pt" height="1185.000000pt" viewBox="0 0 1185.000000 1185.000000"
 preserveAspectRatio="xMidYMid meet">

<g transform="translate(0.000000,1185.000000) scale(0.100000,-0.100000)"
fill="#000000" stroke="none">
<path d="M10 5925 l0 -5915 5915 0 5915 0 0 5915 0 5915 -5915 0 -5915 0 0
-5915z m11810 0 l0 -5895 -5895 0 -5895 0 0 5895 0 5895 5895 0 5895 0 0
-5895z"/>
<path d="M7870 9475 c0 -8 11 -97 25 -197 35 -258 39 -353 26 -513 -22 -255
-65 -458 -136 -652 -54 -145 -185 -411 -258 -522 -160 -243 -256 -357 -577
-685 -223 -228 -224 -244 -4 -69 146 115 135 107 159 111 24 5 26 6 29 24 3
22 17 39 27 33 17 -11 175 107 574 425 218 174 540 429 927 732 l38 30 9 -24
c5 -13 39 -75 76 -138 349 -596 620 -1487 734 -2410 60 -492 70 -649 77 -1222
6 -515 7 -548 24 -548 16 0 18 20 26 247 16 531 9 1192 -17 1508 -83 1018
-290 1878 -600 2497 -135 271 -286 503 -497 768 -137 172 -476 505 -597 586
-56 38 -65 41 -65 19z m340 -647 c0 -12 -46 -28 -77 -28 -23 0 -25 3 -19 31 3
17 6 48 6 68 l1 36 44 -50 c25 -27 45 -53 45 -57z m-40 -137 c0 -5 -18 -28
-41 -52 l-40 -44 5 34 c3 18 6 42 6 52 0 15 7 19 35 19 19 0 35 -4 35 -9z
m220 -61 c29 -39 51 -73 48 -75 -7 -8 -217 -37 -239 -33 -18 3 -10 15 56 91
42 48 78 87 80 87 2 0 27 -32 55 -70z m150 -198 c0 -5 18 -35 39 -68 21 -32
42 -69 45 -80 6 -19 1 -22 -36 -28 -24 -4 -109 -29 -189 -56 -80 -27 -166 -52
-190 -55 l-44 -7 46 44 c113 106 244 224 268 240 27 19 61 24 61 10z m-310
-85 c-41 -39 -118 -106 -170 -149 -111 -93 -120 -88 -71 35 17 42 34 94 37
116 l6 38 126 17 c69 9 128 19 131 21 2 3 7 2 10 -1 3 -3 -28 -38 -69 -77z
m155 -275 c-229 -203 -1067 -935 -1095 -956 -22 -16 -42 -27 -45 -24 -7 6 16
35 280 362 126 155 212 273 255 347 36 62 77 120 90 130 14 10 99 39 190 63
91 25 192 54 225 65 62 21 116 27 100 13z"/>
<path d="M8595 8000 l-39 -40 62 0 c67 0 71 5 52 54 -13 36 -29 33 -75 -14z"/>
<path d="M8720 8024 c0 -6 8 -78 17 -160 19 -173 21 -518 3 -744 -34 -446
-131 -1028 -246 -1468 -153 -590 -416 -1310 -626 -1716 l-45 -86 837 0 837 0
6 167 c29 733 -33 1493 -188 2294 -92 472 -325 1212 -491 1554 -49 103 -103
184 -104 159z"/>
<path d="M8346 7800 c-28 -9 -106 -76 -106 -92 0 -4 104 -8 230 -8 l230 0 0
55 0 55 -162 -1 c-90 0 -176 -5 -192 -9z"/>
<path d="M7995 7541 c-27 -16 -59 -38 -69 -50 l-19 -21 396 0 397 0 0 50 0 50
-327 0 -328 0 -50 -29z"/>
<path d="M8135 7347 c-35 -19 -60 -22 -235 -27 -212 -6 -248 -14 -291 -69
l-21 -26 194 -5 c106 -3 193 -7 193 -10 -1 -3 -6 -31 -14 -62 l-12 -58 -234 0
c-131 0 -256 -5 -285 -11 -51 -11 -140 -63 -148 -86 -3 -10 69 -13 337 -13
318 0 341 -1 341 -17 0 -10 11 -42 25 -71 14 -30 25 -56 25 -59 0 -3 -208 -4
-462 -2 -456 3 -464 3 -503 -18 -22 -12 -53 -35 -69 -52 l-30 -31 584 0 c352
0 618 -4 669 -11 97 -12 425 0 440 16 4 6 11 29 15 53 l6 42 -50 0 c-45 0 -50
2 -50 23 1 34 36 104 58 116 12 6 30 11 41 11 19 0 21 6 21 55 l0 55 -35 0
c-30 0 -35 4 -41 28 -3 15 -10 37 -15 50 -14 36 -12 39 38 45 53 6 73 25 73
72 l0 32 -113 6 c-76 3 -131 12 -172 26 -84 30 -223 29 -280 -2z m233 -92 c82
-35 123 -103 129 -215 3 -64 1 -81 -19 -115 -66 -113 -254 -140 -355 -52 -96
84 -99 241 -6 329 65 62 174 85 251 53z"/>
<path d="M8252 7165 c3 -14 1 -25 -3 -25 -5 0 -9 9 -9 21 0 14 -5 19 -17 17
-13 -3 -17 -12 -15 -33 3 -29 3 -29 -12 -10 -12 16 -17 18 -28 7 -9 -9 -10
-17 -1 -30 9 -16 8 -18 -10 -18 -13 1 -23 -6 -25 -16 -6 -29 63 -24 100 7 16
14 38 25 49 25 11 0 31 -11 45 -25 18 -18 36 -25 64 -25 34 0 38 2 33 21 -5
16 -12 20 -32 16 -24 -5 -24 -4 -7 9 16 11 17 16 6 29 -12 14 -15 14 -33 -2
-19 -18 -20 -17 -7 6 10 19 10 25 -1 32 -21 13 -25 11 -37 -13 -11 -22 -11
-21 -6 5 6 25 4 27 -26 27 -29 0 -32 -3 -28 -25z"/>
<path d="M8242 7053 c-18 -26 -18 -29 -2 -45 20 -22 50 -24 50 -4 0 8 3 23 6
33 4 13 3 15 -4 4 -8 -11 -10 -11 -15 0 -4 8 -4 2 -1 -13 5 -23 3 -28 -12 -28
-16 0 -17 2 -4 10 12 8 12 10 -5 10 -12 0 -16 3 -9 8 12 7 29 52 20 52 -2 0
-13 -12 -24 -27z"/>
<path d="M8130 7020 c0 -17 5 -19 24 -14 17 4 34 -1 55 -17 17 -12 29 -25 27
-28 -2 -3 18 -6 44 -6 27 0 46 3 44 7 -8 12 55 49 78 46 15 -2 24 3 26 15 3
14 -4 17 -35 17 -32 -1 -41 -6 -58 -33 -33 -52 -107 -47 -121 8 -5 21 -12 25
-45 25 -32 0 -39 -3 -39 -20z"/>
<path d="M8150 6966 c0 -19 17 -29 25 -16 3 5 16 10 28 10 18 0 19 2 7 10 -23
15 -60 12 -60 -4z"/>
<path d="M8345 6970 c-3 -5 3 -10 14 -10 11 0 23 -5 27 -11 6 -11 23 6 24 24
0 11 -58 9 -65 -3z"/>
<path d="M8235 6943 c-38 -6 -55 -21 -36 -33 10 -6 23 -2 39 11 31 24 53 24
85 -1 21 -17 27 -18 36 -6 7 8 8 16 4 19 -14 8 -97 14 -128 10z"/>
<path d="M8257 6914 c-15 -15 -6 -24 24 -24 20 0 29 4 27 13 -5 14 -40 21 -51
11z"/>
<path d="M8400 6910 c0 -5 5 -10 10 -10 6 0 10 5 10 10 0 6 -4 10 -10 10 -5 0
-10 -4 -10 -10z"/>
<path d="M3080 6589 c-69 -5 -144 -11 -166 -14 l-42 -6 20 -62 c30 -97 38
-286 38 -957 0 -679 -8 -865 -39 -956 -11 -32 -18 -60 -17 -61 9 -9 314 -25
583 -30 351 -6 449 1 583 43 186 58 316 183 377 363 12 36 23 62 23 56 0 -5 9
-91 20 -189 11 -99 20 -180 20 -182 0 -8 124 -47 212 -66 88 -19 134 -22 318
-22 191 0 224 2 295 22 252 69 414 221 471 443 22 85 22 252 0 339 -22 87 -65
176 -111 228 -79 90 -221 180 -410 257 -254 105 -325 164 -325 271 0 59 28
106 78 130 54 27 283 27 362 0 67 -23 177 -77 248 -122 29 -19 54 -34 55 -34
7 0 -53 464 -60 471 -10 9 -157 53 -238 71 -95 20 -414 17 -495 -5 -166 -45
-316 -156 -373 -279 -108 -229 -57 -533 118 -696 80 -75 170 -129 341 -202
268 -115 343 -185 344 -320 0 -83 -46 -143 -140 -181 -54 -22 -306 -19 -390 5
-78 21 -218 85 -281 128 l-46 31 -7 80 c-24 285 -200 442 -535 476 -51 6 -95
12 -97 14 -3 2 15 7 39 10 79 11 232 66 294 106 102 66 159 152 184 279 39
205 -53 388 -245 482 -86 42 -158 63 -271 80 -82 11 -555 11 -735 -1z m676
-386 c51 -27 98 -80 114 -128 19 -57 9 -200 -18 -251 -29 -57 -103 -119 -171
-145 -66 -25 -186 -49 -243 -49 l-41 0 7 282 c4 155 12 291 18 301 9 17 21 19
151 15 122 -3 148 -7 183 -25z m-147 -639 c182 -32 297 -109 337 -224 28 -82
26 -228 -4 -295 -29 -63 -73 -110 -137 -143 -43 -22 -65 -27 -160 -30 -90 -3
-219 8 -231 21 -6 6 -17 666 -11 681 7 18 57 16 206 -10z"/>
<path d="M6630 6576 l0 -24 205 -3 c183 -4 206 -6 217 -22 8 -10 31 -22 53
-27 23 -5 362 -10 771 -10 l732 0 6 38 c4 20 9 45 12 55 5 16 -47 17 -995 17
l-1001 0 0 -24z"/>
<path d="M2162 6493 c32 -132 41 -445 30 -1083 -11 -597 -16 -654 -67 -805
-48 -140 -136 -288 -244 -409 -77 -87 -79 -100 -9 -80 100 30 224 76 304 114
258 120 398 302 466 605 19 83 21 143 28 795 8 688 12 768 44 888 l14 52 -293
0 -292 0 19 -77z"/>
<path d="M5914 6498 c20 -71 21 -102 24 -910 3 -795 2 -841 -17 -930 -10 -51
-22 -101 -26 -110 -7 -17 11 -18 288 -18 l294 0 -19 78 c-29 116 -37 335 -37
952 0 701 9 875 55 995 5 13 -28 15 -288 15 l-294 0 20 -72z"/>
<path d="M6620 6333 c1 -34 19 -38 217 -43 187 -5 200 -6 227 -27 l29 -23 737
0 738 0 4 50 3 50 -977 0 c-538 0 -978 -3 -978 -7z"/>
<path d="M6618 6099 c-10 -5 -18 -17 -18 -24 0 -13 34 -15 219 -15 l220 0 3
-27 3 -28 736 -3 736 -2 7 39 c3 22 9 46 12 55 6 15 -81 16 -947 16 -630 -1
-960 -4 -971 -11z"/>
<path d="M6576 5835 c12 -31 45 -35 258 -35 l216 0 0 -25 0 -25 704 0 c663 0
705 1 710 18 2 9 7 32 11 50 l7 32 -956 0 c-853 0 -955 -2 -950 -15z"/>
<path d="M9705 5730 c17 -87 25 -171 25 -286 0 -110 3 -134 17 -145 16 -14
233 -28 233 -15 0 27 -212 395 -255 443 l-25 28 5 -25z"/>
<path d="M6640 5613 c-65 -5 -75 -10 -60 -28 10 -13 53 -15 256 -15 l244 0 0
-35 0 -35 654 0 654 0 16 40 c20 51 20 66 0 74 -16 6 -1684 5 -1764 -1z"/>
<path d="M6580 5346 c0 -22 5 -25 56 -32 31 -3 116 -3 190 0 169 9 240 1 269
-30 l22 -24 587 0 c364 0 594 4 606 10 17 9 40 58 40 86 0 12 -148 14 -885 14
l-885 0 0 -24z"/>
<path d="M9750 4977 l0 -207 115 0 c73 0 115 4 115 10 0 6 -9 29 -20 51 -19
36 -198 338 -206 348 -2 2 -4 -89 -4 -202z"/>
<path d="M6560 5095 c0 -12 37 -15 248 -17 l247 -3 3 -32 3 -33 588 0 587 0
21 50 21 50 -859 0 c-752 0 -859 -2 -859 -15z"/>
<path d="M6600 4855 l0 -25 220 0 220 0 0 -30 0 -30 534 0 c353 0 543 4 564
11 29 10 52 48 52 85 0 12 -134 14 -795 14 l-795 0 0 -25z"/>
<path d="M9750 4468 l0 -198 115 0 c63 0 115 3 115 8 0 4 -21 43 -46 87 -26
44 -67 116 -93 161 -25 45 -56 94 -68 110 l-22 29 -1 -197z"/>
<path d="M6710 4585 c0 -12 31 -15 198 -17 l197 -3 3 -38 3 -37 475 2 475 3
18 53 18 52 -694 0 c-605 0 -693 -2 -693 -15z"/>
<path d="M2524 4414 c13 -12 16 -38 16 -120 0 -58 -5 -114 -10 -125 -13 -23 2
-26 24 -3 13 12 16 39 16 124 0 85 3 112 16 124 14 15 11 16 -31 16 -42 0 -45
-1 -31 -16z"/>
<path d="M2648 4418 c7 -7 12 -44 12 -95 0 -91 16 -123 62 -123 l22 0 -22 16
c-20 14 -22 24 -22 103 0 54 4 91 12 99 9 9 2 12 -32 12 -34 0 -41 -3 -32 -12z"/>
<path d="M2816 4423 c5 -5 11 -12 15 -16 3 -4 12 -1 19 8 11 13 9 15 -15 15
-16 0 -24 -3 -19 -7z"/>
<path d="M2924 4414 c12 -11 16 -36 16 -99 0 -63 -4 -88 -16 -99 -14 -15 -11
-16 32 -16 41 0 45 2 31 13 -14 10 -17 28 -14 115 l2 102 -33 0 c-30 0 -32 -1
-18 -16z"/>
<path d="M3028 4414 c30 -21 29 -59 -3 -80 -25 -16 -25 -17 -7 -43 10 -14 24
-41 31 -58 10 -24 20 -33 36 -33 22 0 22 1 -11 64 -33 62 -34 65 -14 71 50 16
26 95 -29 95 l-25 0 22 -16z"/>
<path d="M3146 4422 c7 -4 13 -47 16 -101 5 -98 16 -121 60 -121 17 0 17 1 -2
20 -17 17 -20 33 -20 103 0 51 5 88 12 95 9 9 2 12 -32 12 -25 0 -40 -4 -34
-8z"/>
<path d="M3327 4419 c8 -8 16 -8 30 0 16 9 14 10 -11 11 -22 0 -27 -3 -19 -11z"/>
<path d="M3426 4408 c-30 -43 -17 -66 63 -110 24 -13 31 -24 31 -47 0 -18 -7
-34 -17 -40 -17 -10 -17 -10 0 -11 21 0 57 34 57 56 0 19 -45 63 -88 86 -34
18 -43 53 -20 76 9 9 9 12 1 12 -7 0 -19 -10 -27 -22z"/>
<path d="M3502 4419 c10 -5 22 -17 27 -27 9 -15 10 -13 11 8 0 21 -5 26 -27
28 -23 1 -25 0 -11 -9z"/>
<path d="M3678 4413 c-2 -10 11 -52 29 -93 35 -81 40 -106 21 -113 -7 -3 10
-6 37 -6 34 0 45 2 35 9 -9 5 -35 56 -60 114 -43 105 -55 122 -62 89z"/>
<path d="M3848 4423 c8 -3 12 -35 12 -108 0 -73 -4 -105 -12 -108 -7 -3 0 -6
16 -6 23 -1 26 2 17 13 -8 9 -11 44 -9 97 l3 83 80 -99 c72 -88 80 -96 83 -73
2 20 -14 48 -70 117 -63 79 -77 90 -103 90 -16 0 -24 -3 -17 -6z"/>
<path d="M4016 4423 c5 -5 11 -12 15 -16 3 -4 12 -1 19 8 11 13 9 15 -15 15
-16 0 -24 -3 -19 -7z"/>
<path d="M4214 4414 c12 -11 16 -36 16 -99 0 -63 -4 -88 -16 -99 -14 -15 -11
-16 32 -16 41 0 45 2 31 13 -14 10 -17 28 -14 115 l2 102 -33 0 c-30 0 -32 -1
-18 -16z"/>
<path d="M4323 4419 c27 -16 23 -77 -5 -88 l-23 -8 25 -8 c32 -10 40 -22 40
-61 0 -22 -6 -34 -22 -42 l-23 -11 23 0 c41 -2 62 17 62 54 0 36 -21 65 -48
66 -14 0 -13 3 6 16 24 17 30 61 10 81 -7 7 -23 12 -37 12 -23 -1 -24 -2 -8
-11z"/>
<path d="M4527 4416 c-3 -8 10 -52 29 -98 27 -64 33 -87 24 -100 -9 -16 -5
-18 35 -18 43 0 44 1 27 18 -10 10 -36 62 -58 115 -21 53 -42 97 -45 97 -4 0
-9 -6 -12 -14z"/>
<path d="M4704 4414 c12 -11 16 -36 16 -99 0 -63 -4 -88 -16 -99 -14 -15 -11
-16 31 -16 41 0 45 2 31 15 -22 23 -21 191 2 205 13 7 5 9 -31 10 -44 0 -47
-1 -33 -16z"/>
<path d="M4868 4418 c16 -16 16 -190 0 -206 -9 -9 -2 -12 33 -11 24 0 38 3 32
6 -9 3 -13 35 -13 108 0 73 4 105 13 108 6 3 -8 6 -32 6 -35 1 -42 -2 -33 -11z"/>
<path d="M5067 4416 c-3 -8 10 -52 29 -98 27 -64 33 -87 24 -100 -9 -16 -5
-18 35 -18 43 0 44 1 27 18 -10 10 -36 62 -58 115 -21 53 -42 97 -45 97 -4 0
-9 -6 -12 -14z"/>
<path d="M5246 4408 c-30 -43 -17 -66 63 -110 24 -13 31 -24 31 -47 0 -18 -7
-34 -17 -40 -17 -10 -17 -10 0 -11 21 0 57 34 57 56 0 19 -45 63 -88 86 -34
18 -43 53 -20 76 9 9 9 12 1 12 -7 0 -19 -10 -27 -22z"/>
<path d="M5322 4419 c10 -5 22 -17 27 -27 9 -15 10 -13 11 8 0 21 -5 26 -27
28 -23 1 -25 0 -11 -9z"/>
<path d="M5498 4413 c-2 -10 11 -52 29 -93 35 -81 40 -106 21 -113 -7 -3 10
-6 37 -6 34 0 45 2 35 9 -9 5 -35 56 -60 114 -43 105 -55 122 -62 89z"/>
<path d="M5764 4414 c12 -11 16 -36 16 -99 0 -63 -4 -88 -16 -99 -14 -15 -11
-16 31 -16 43 0 45 1 30 16 -13 14 -16 34 -13 115 l3 99 -33 0 c-30 0 -32 -1
-18 -16z"/>
<path d="M5887 4415 c57 -24 80 -104 47 -166 -8 -17 -25 -34 -37 -39 l-22 -9
23 0 c34 -1 60 15 77 49 41 79 -14 181 -97 180 -20 -1 -19 -3 9 -15z"/>
<path d="M6111 4412 c-5 -10 -6 -23 -2 -28 13 -13 61 -138 61 -156 0 -9 -6
-19 -12 -21 -7 -3 10 -6 37 -6 28 0 45 3 38 7 -7 4 -33 55 -58 112 -25 57 -47
105 -49 108 -3 2 -9 -5 -15 -16z"/>
<path d="M6308 4391 c20 -21 64 -73 97 -114 33 -42 63 -76 68 -77 4 0 7 49 7
109 0 78 4 111 13 114 6 3 -1 6 -17 6 -23 1 -26 -2 -17 -13 7 -9 11 -42 9 -86
l-3 -73 -68 87 c-57 73 -72 86 -96 86 l-29 0 36 -39z"/>
<path d="M6733 4378 c-12 -6 -24 -17 -27 -24 -4 -12 33 -14 219 -14 l225 0 0
-30 0 -30 409 0 408 0 20 55 21 55 -627 -1 c-419 0 -633 -4 -648 -11z"/>
<path d="M3400 4236 c0 -18 7 -25 28 -29 15 -3 27 -5 27 -4 0 1 -12 14 -27 29
l-28 27 0 -23z"/>
<path d="M5220 4236 c0 -18 7 -25 28 -29 15 -3 27 -5 27 -4 0 1 -12 14 -27 29
l-28 27 0 -23z"/>
<path d="M3597 4225 c-18 -25 -18 -25 6 -25 20 0 23 4 19 25 -2 14 -5 25 -6
25 0 0 -9 -12 -19 -25z"/>
<path d="M5417 4225 c-18 -25 -18 -25 6 -25 20 0 23 4 19 25 -2 14 -5 25 -6
25 0 0 -9 -12 -19 -25z"/>
<path d="M6027 4224 l-18 -24 33 0 c18 0 28 4 22 8 -7 4 -13 14 -15 24 -3 13
-7 12 -22 -8z"/>
<path d="M4438 4218 c-17 -17 -17 -18 13 -18 28 0 30 2 18 18 -7 9 -13 17 -14
18 0 0 -8 -8 -17 -18z"/>
<path d="M4978 4218 c-17 -17 -17 -18 13 -18 28 0 30 2 18 18 -7 9 -13 17 -14
18 0 0 -8 -8 -17 -18z"/>
<path d="M6286 4214 c-19 -13 -18 -14 15 -14 19 0 30 4 24 8 -5 4 -12 10 -15
14 -3 3 -14 0 -24 -8z"/>
<path d="M2465 4181 c-9 -15 8 -35 24 -30 8 3 7 10 -2 23 -10 14 -16 16 -22 7z"/>
<path d="M9720 4015 l0 -165 156 0 c89 0 154 4 152 9 -1 5 -40 54 -86 110 -84
100 -195 211 -213 211 -5 0 -9 -68 -9 -165z"/>
<path d="M6731 4131 c-14 -4 -26 -12 -29 -19 -3 -9 54 -12 247 -12 l251 0 0
-35 0 -35 193 -2 c332 -5 411 -3 435 10 19 11 72 82 72 97 0 8 -1141 4 -1169
-4z"/>
<path d="M1916 4071 c-30 -33 -17 -71 33 -100 73 -43 79 -78 20 -108 -30 -16
-13 -17 30 -2 33 12 48 42 36 78 -3 11 -30 33 -58 48 -40 22 -52 33 -52 52 0
48 71 55 93 9 11 -23 11 -23 11 3 1 19 -5 28 -21 33 -42 11 -75 6 -92 -13z"/>
<path d="M2237 4073 c-2 -10 2 -29 8 -43 31 -63 30 -68 -17 -73 l-43 -4 46 -1
c39 -2 48 -6 57 -27 16 -36 15 -52 -5 -64 -14 -8 -4 -10 42 -11 55 0 58 1 38
15 -11 8 -40 61 -64 120 -24 58 -46 105 -50 105 -4 0 -9 -8 -12 -17z"/>
<path d="M2500 4070 c-38 -38 -24 -73 41 -106 41 -20 49 -29 49 -52 0 -15 -5
-33 -12 -40 -9 -9 -8 -12 5 -12 9 0 24 11 33 25 24 37 7 67 -56 101 -46 25
-51 31 -48 58 3 27 7 31 35 34 23 2 35 -3 47 -20 16 -22 16 -22 16 -1 0 37
-76 47 -110 13z"/>
<path d="M2720 4069 c0 -19 1 -19 16 -5 8 9 31 16 50 16 l34 0 0 -101 c0 -85
-3 -104 -17 -115 -16 -12 -11 -13 37 -13 48 0 53 1 38 13 -15 11 -18 30 -18
115 l0 101 34 0 c25 0 39 -7 50 -22 l16 -22 0 27 0 27 -120 0 c-115 0 -120 -1
-120 -21z"/>
<path d="M3068 4080 c21 -9 22 -15 22 -104 0 -87 -2 -96 -22 -110 -21 -15 -20
-16 37 -16 57 0 59 1 37 16 -19 13 -22 24 -20 57 2 34 7 42 23 42 14 0 28 -16
48 -57 23 -48 32 -58 53 -58 24 0 24 1 9 24 -9 14 -26 44 -38 68 -20 39 -25
43 -54 40 l-33 -3 0 50 c0 47 2 51 24 51 33 0 50 -24 42 -60 -4 -21 -2 -30 7
-30 20 0 37 22 37 46 0 38 -36 54 -120 53 -55 0 -69 -3 -52 -9z"/>
<path d="M3452 4066 c-6 -14 -7 -26 -2 -28 5 -2 16 -20 25 -42 l16 -38 -40 4
c-22 2 -42 -1 -45 -7 -2 -6 14 -9 43 -7 44 3 47 2 58 -29 11 -28 10 -35 -4
-51 -15 -17 -14 -18 38 -18 46 1 52 2 37 14 -9 7 -36 57 -59 112 -23 54 -45
102 -49 107 -4 4 -12 -4 -18 -17z"/>
<path d="M3923 4079 c14 -8 17 -25 17 -106 0 -80 -3 -98 -17 -109 -16 -12 -11
-13 37 -13 48 0 53 1 38 13 -15 11 -18 29 -18 109 0 81 3 98 18 106 13 8 4 10
-38 10 -42 0 -51 -2 -37 -10z"/>
<path d="M4123 4079 c14 -8 17 -25 17 -109 0 -84 -3 -101 -17 -109 -14 -8 -10
-10 22 -10 36 0 38 1 22 13 -15 12 -17 27 -15 101 l3 87 80 -99 c74 -90 80
-96 83 -71 2 17 -4 36 -17 50 -12 12 -45 52 -74 90 -47 60 -56 67 -87 67 -29
0 -32 -1 -17 -10z"/>
<path d="M4290 4083 c8 -3 17 -9 20 -13 3 -3 16 0 30 7 24 12 23 13 -20 12
-25 0 -38 -3 -30 -6z"/>
<path d="M4473 4080 c14 -9 17 -26 17 -110 0 -84 -3 -101 -17 -109 -26 -15
122 -13 167 2 73 25 89 124 30 190 -28 31 -31 32 -122 35 -70 2 -89 0 -75 -8z
m161 -31 c34 -40 41 -72 27 -120 -13 -43 -43 -69 -81 -69 -43 0 -50 16 -50
122 l0 98 39 0 c32 0 44 -6 65 -31z"/>
<path d="M4930 4084 c62 -12 71 -16 85 -44 8 -16 15 -50 15 -75 0 -38 -5 -52
-29 -76 -33 -33 -32 -35 9 -14 66 34 78 115 27 171 -28 30 -40 36 -82 39 -28
2 -39 2 -25 -1z"/>
<path d="M5179 4083 c19 -7 47 -38 129 -140 37 -46 70 -83 75 -83 4 0 7 47 7
105 0 88 3 106 18 114 14 8 9 10 -22 11 -35 0 -38 -2 -22 -13 14 -10 16 -25
14 -87 l-3 -75 -68 88 c-65 82 -71 87 -105 86 -20 0 -31 -3 -23 -6z"/>
<path d="M5538 4080 c21 -9 22 -15 22 -104 0 -87 -2 -96 -22 -110 -21 -15 -16
-16 80 -16 l102 0 0 25 0 25 -20 -20 c-22 -22 -69 -27 -88 -8 -17 17 -16 98 1
98 7 0 18 -5 25 -12 9 -9 12 -6 12 15 0 25 -2 26 -20 15 -27 -17 -40 2 -40 55
0 37 0 37 42 37 25 0 49 -7 61 -17 19 -17 19 -17 16 2 -4 18 -13 20 -99 22
-66 2 -88 -1 -72 -7z"/>
<path d="M5851 4064 c-12 -15 -21 -30 -21 -34 0 -16 36 -51 70 -68 30 -15 35
-22 35 -52 0 -26 -6 -38 -25 -48 l-25 -14 30 7 c38 8 65 32 65 57 0 23 -42 66
-89 90 -26 15 -32 23 -29 45 2 23 8 29 34 31 25 2 37 -3 53 -24 19 -25 21 -25
21 -6 0 47 -86 58 -119 16z"/>
<path d="M6090 4083 c26 -10 30 -25 30 -115 0 -79 -2 -88 -22 -102 -21 -15
-20 -16 37 -16 57 0 58 1 37 16 -20 14 -22 23 -22 102 0 90 4 105 30 115 8 3
-12 5 -45 5 -33 0 -53 -2 -45 -5z"/>
<path d="M6384 4076 c-4 -9 1 -36 10 -59 21 -57 21 -57 -18 -57 -19 0 -37 -3
-40 -8 -2 -4 14 -6 37 -3 31 2 44 -1 54 -15 18 -25 16 -61 -4 -73 -14 -8 -4
-10 42 -10 43 0 55 2 44 9 -9 5 -38 58 -64 117 -26 60 -49 110 -51 112 -2 2
-6 -4 -10 -13z"/>
<path d="M4864 4062 c-30 -24 -44 -55 -44 -97 0 -29 8 -45 34 -71 19 -19 41
-34 49 -34 11 0 6 9 -14 29 -25 25 -29 37 -29 84 0 40 6 61 21 81 23 30 14 34
-17 8z"/>
<path d="M6700 3905 l0 -25 145 0 c122 0 145 -2 145 -15 0 -13 48 -15 374 -15
l374 0 6 31 c3 17 6 35 6 40 0 5 -232 9 -525 9 l-525 0 0 -25z"/>
<path d="M2470 3897 c0 -18 5 -27 15 -27 13 0 14 4 4 23 -17 33 -19 33 -19 4z"/>
<path d="M5820 3898 c0 -20 6 -27 26 -31 l25 -4 -23 26 c-13 14 -24 28 -25 30
-2 2 -3 -7 -3 -21z"/>
<path d="M1890 3893 c0 -13 8 -23 21 -26 20 -5 20 -5 3 16 -11 12 -20 24 -21
26 -2 2 -3 -5 -3 -16z"/>
<path d="M2152 3878 l-24 -28 37 0 c29 0 35 3 27 13 -5 6 -11 19 -13 28 -3 12
-9 9 -27 -13z"/>
<path d="M3363 3873 l-22 -23 41 0 c35 0 39 2 26 13 -9 6 -17 17 -19 22 -2 6
-14 0 -26 -12z"/>
<path d="M6291 3875 l-23 -25 37 0 c29 0 35 3 28 13 -6 6 -12 17 -14 24 -3 8
-13 3 -28 -12z"/>
<path d="M5186 3865 c-18 -14 -17 -15 24 -15 41 0 42 1 24 15 -10 8 -21 14
-24 14 -3 0 -14 -6 -24 -14z"/>
<path d="M4938 3853 c7 -3 16 -2 19 1 4 3 -2 6 -13 5 -11 0 -14 -3 -6 -6z"/>
</g>
</svg>
